<?xml version="1.0" standalone="no"?>
<!DOCTYPE svg PUBLIC "-//W3C//DTD SVG 20010904//EN"
 "http://www.w3.org/TR/2001/REC-SVG-20010904/DTD/svg10.dtd">
<svg version="1.0" xmlns="http://www.w3.org/2000/svg"
 width="200.000000pt" height="200.000000pt" viewBox="0 0 200.000000 200.000000"
 preserveAspectRatio="xMidYMid meet">
<metadata>
Created by potrace 1.16, written by Peter Selinger 2001-2019
</metadata>
<g transform="translate(0.000000,200.000000) scale(0.100000,-0.100000)"
fill="#000000" stroke="none">
<path d="M1315 1379 c-82 -35 -82 -36 -67 -51 9 -9 3 -22 -30 -55 l-42 -43
-448 0 -447 0 -3 -112 -3 -113 -128 -3 c-118 -2 -127 -4 -127 -22 0 -18 9 -20
128 -22 l127 -3 3 -107 3 -108 202 0 201 0 -59 -60 c-58 -59 -59 -60 -40 -80
19 -21 19 -21 100 60 l80 80 467 0 467 0 3 108 3 107 128 3 c119 2 127 4 127
22 0 19 -7 20 -130 20 l-130 0 0 115 0 115 -222 0 -222 0 21 22 c19 18 24 19
38 8 18 -15 17 -16 38 35 8 22 23 57 31 78 9 20 13 37 9 37 -5 -1 -39 -14 -78
-31z m-205 -207 c0 -11 -134 -142 -145 -142 -6 0 -37 27 -70 60 -53 53 -64 60
-99 60 l-41 0 85 -85 85 -85 -90 -90 -90 -90 -207 0 -208 0 0 183 c0 101 2
186 6 189 7 8 774 8 774 0z m528 -184 l2 -188 -407 0 -408 0 180 181 c99 99
189 184 200 189 11 4 112 7 225 6 l205 -1 3 -187z"/>
<path d="M408 1138 c-12 -32 4 -38 91 -38 74 0 91 -3 105 -19 42 -47 -11 -81
-124 -81 -49 0 -69 -4 -73 -14 -8 -20 1 -26 37 -26 26 0 44 -13 99 -68 55 -55
74 -68 102 -70 19 -2 35 1 35 6 0 4 -25 32 -55 62 -30 30 -55 57 -55 61 0 4
12 10 28 13 15 4 41 17 57 30 23 18 29 31 29 61 0 66 -60 95 -195 95 -52 0
-78 -4 -81 -12z"/>
<path d="M1276 1140 c-49 -15 -103 -59 -121 -100 -66 -145 157 -276 324 -190
93 47 127 138 79 210 -35 52 -116 90 -192 89 -34 0 -74 -5 -90 -9z m152 -45
c51 -22 81 -52 88 -90 23 -125 -200 -188 -284 -80 -48 61 -18 141 63 170 52
19 87 18 133 0z"/>
</g>
</svg>
