<?xml version="1.0" encoding="UTF-8"?>
<!DOCTYPE svg PUBLIC "-//W3C//DTD SVG 1.1//EN" "http://www.w3.org/Graphics/SVG/1.1/DTD/svg11.dtd">
<svg version="1.1" xmlns="http://www.w3.org/2000/svg" xmlns:xlink="http://www.w3.org/1999/xlink" x="0" y="0" width="774" height="360" viewBox="0, 0, 774, 360">
  <g id="Layer_1">
    <g>
      <path d="M0,-0 L774,-0 L774,360 L0,360 L0,-0 z" fill="#FFFFFF"/>
      <g>
        <path d="M525.753,173.241 L423.474,121.628 L423.474,224.38 L525.753,173.241 z" fill-opacity="0" stroke="#000000" stroke-width="3"/>
        <path d="M423.474,158.674 L130.989,158.674" fill-opacity="0" stroke="#000000" stroke-width="3"/>
        <path d="M525.753,173.241 L638.01,173.241" fill-opacity="0" stroke="#000000" stroke-width="3"/>
        <path d="M423.474,204.453 L382.01,204.453" fill-opacity="0" stroke="#000000" stroke-width="3"/>
        <path d="M382.01,204.453 L382.01,336.453" fill-opacity="0" stroke="#000000" stroke-width="3"/>
        <path d="M128.5,336.453 L635.521,336.453" fill-opacity="0" stroke="#000000" stroke-width="3"/>
        <path d="M387.138,164.174 L387.138,29.674" fill-opacity="0" stroke="#000000" stroke-width="3"/>
        <path d="M387.138,29.674 L567.01,29.674" fill-opacity="0" stroke="#000000" stroke-width="3"/>
        <path d="M567.01,29.674 L567.01,173.241" fill-opacity="0" stroke="#000000" stroke-width="3"/>
        <path d="M381.51,341.953 C378.197,341.953 375.51,339.267 375.51,335.953 C375.51,332.639 378.197,329.953 381.51,329.953 C384.824,329.953 387.51,332.639 387.51,335.953 C387.51,339.267 384.824,341.953 381.51,341.953 z" fill="#000000"/>
        <path d="M384,164.174 C380.686,164.174 378,161.488 378,158.174 C378,154.861 380.686,152.174 384,152.174 C387.314,152.174 390,154.861 390,158.174 C390,161.488 387.314,164.174 384,164.174 z" fill="#000000"/>
        <path d="M566.919,178.504 C563.605,178.504 560.919,175.818 560.919,172.504 C560.919,169.19 563.605,166.504 566.919,166.504 C570.233,166.504 572.919,169.19 572.919,172.504 C572.919,175.818 570.233,178.504 566.919,178.504 z" fill="#000000"/>
        <g>
          <path d="M643.51,178.741 C640.473,178.741 638.01,176.279 638.01,173.241 C638.01,170.203 640.473,167.741 643.51,167.741 C646.548,167.741 649.01,170.203 649.01,173.241 C649.01,176.279 646.548,178.741 643.51,178.741 z" fill="#FFFFFF"/>
          <path d="M643.51,178.741 C640.473,178.741 638.01,176.279 638.01,173.241 C638.01,170.203 640.473,167.741 643.51,167.741 C646.548,167.741 649.01,170.203 649.01,173.241 C649.01,176.279 646.548,178.741 643.51,178.741 z" fill-opacity="0" stroke="#000000" stroke-width="3"/>
        </g>
        <g>
          <path d="M643.51,341.953 C640.473,341.953 638.01,339.491 638.01,336.453 C638.01,333.416 640.473,330.953 643.51,330.953 C646.548,330.953 649.01,333.416 649.01,336.453 C649.01,339.491 646.548,341.953 643.51,341.953 z" fill="#FFFFFF"/>
          <path d="M643.51,341.953 C640.473,341.953 638.01,339.491 638.01,336.453 C638.01,333.416 640.473,330.953 643.51,330.953 C646.548,330.953 649.01,333.416 649.01,336.453 C649.01,339.491 646.548,341.953 643.51,341.953 z" fill-opacity="0" stroke="#000000" stroke-width="3"/>
        </g>
        <g>
          <path d="M125.489,164.174 C122.452,164.174 119.989,161.712 119.989,158.674 C119.989,155.637 122.452,153.174 125.489,153.174 C128.527,153.174 130.99,155.637 130.99,158.674 C130.99,161.712 128.527,164.174 125.489,164.174 z" fill="#FFFFFF"/>
          <path d="M125.489,164.174 C122.452,164.174 119.989,161.712 119.989,158.674 C119.989,155.637 122.452,153.174 125.489,153.174 C128.527,153.174 130.99,155.637 130.99,158.674 C130.99,161.712 128.527,164.174 125.489,164.174 z" fill-opacity="0" stroke="#000000" stroke-width="3"/>
        </g>
        <g>
          <path d="M125.489,341.953 C122.452,341.953 119.989,339.491 119.989,336.453 C119.989,333.416 122.452,330.953 125.489,330.953 C128.527,330.953 130.99,333.416 130.99,336.453 C130.99,339.491 128.527,341.953 125.489,341.953 z" fill="#FFFFFF"/>
          <path d="M125.489,341.953 C122.452,341.953 119.989,339.491 119.989,336.453 C119.989,333.416 122.452,330.953 125.489,330.953 C128.527,330.953 130.99,333.416 130.99,336.453 C130.99,339.491 128.527,341.953 125.489,341.953 z" fill-opacity="0" stroke="#000000" stroke-width="3"/>
        </g>
        <text transform="matrix(1, 0, 0, 1, 483.162, 64.88)">
          <tspan x="-17.505" y="9" font-family="Avenir-Medium" font-size="30" fill="#656565">R1</tspan>
        </text>
        <text transform="matrix(1, 0, 0, 1, 260.951, 107.88)">
          <tspan x="-18.9" y="8" font-family="Avenir-Medium" font-size="30" fill="#656565">C1</tspan>
        </text>
        <text transform="matrix(1, 0, 0, 1, 439.197, 154.88)">
          <tspan x="-5.688" y="11" font-family="Avenir-Medium" font-size="36" fill="#656565">-</tspan>
        </text>
        <text transform="matrix(1, 0, 0, 1, 439.197, 202.917)">
          <tspan x="-8.325" y="4.036" font-family="Avenir-Medium" font-size="25" fill="#656565">+</tspan>
        </text>
        <g>
          <path d="M252.054,178.504 L252.054,135.888 L269.054,135.888 L269.054,178.504 L252.054,178.504 z" fill="#FFFFFF"/>
          <path d="M250.865,179.004 L250.865,136.388" fill-opacity="0" stroke="#000000" stroke-width="12"/>
          <path d="M272.036,179.004 L272.036,136.388" fill-opacity="0" stroke="#000000" stroke-width="12"/>
        </g>
        <g>
          <path d="M519.031,18.547 L519.031,40.802 L448.293,40.802 L448.293,18.547 L519.031,18.547 z" fill="#FFFFFF"/>
          <path d="M519.031,18.547 L519.031,40.802 L448.293,40.802 L448.293,18.547 L519.031,18.547 z" fill-opacity="0" stroke="#000000" stroke-width="2"/>
        </g>
        <text transform="matrix(1, 0, 0, 1, 178.678, 248.88)">
          <tspan x="-42.678" y="11" font-family="Avenir-Medium" font-size="36" fill="#656565">Input</tspan>
        </text>
        <text transform="matrix(1, 0, 0, 1, 578.201, 252.41)">
          <tspan x="-59.31" y="11" font-family="Avenir-Medium" font-size="36" fill="#656565">Output</tspan>
        </text>
        <g>
          <path d="M125.489,324.41 L125.489,181.402" fill-opacity="0" stroke="#A3A3A3" stroke-width="4"/>
          <path d="M125.489,181.402 L130.289,184.602 L125.489,171.802 L120.689,184.602 z" fill="#A3A3A3" fill-opacity="1" stroke="#A3A3A3" stroke-width="4" stroke-opacity="1"/>
        </g>
        <g>
          <path d="M643.51,326.684 L643.51,198.199" fill-opacity="0" stroke="#A3A3A3" stroke-width="4"/>
          <path d="M643.51,198.199 L648.31,201.399 L643.51,188.599 L638.711,201.399 z" fill="#A3A3A3" fill-opacity="1" stroke="#A3A3A3" stroke-width="4" stroke-opacity="1"/>
        </g>
      </g>
    </g>
  </g>
</svg>
