<?xml version="1.0" encoding="UTF-8"?>
<!DOCTYPE svg PUBLIC "-//W3C//DTD SVG 1.1//EN" "http://www.w3.org/Graphics/SVG/1.1/DTD/svg11.dtd">
<svg version="1.1" xmlns="http://www.w3.org/2000/svg" xmlns:xlink="http://www.w3.org/1999/xlink" x="0" y="0" width="700" height="810" viewBox="0, 0, 700, 810">
  <g id="Layer_1">
    <g>
      <text transform="matrix(1, 0, 0, 1, 166, 56.323)">
        <tspan x="-42.678" y="-13.5" font-family="Avenir-Medium" font-size="36" fill="#656565">Input </tspan>
        <tspan x="-91.494" y="35.5" font-family="Avenir-Medium" font-size="36" fill="#656565">Waveforms</tspan>
      </text>
      <text transform="matrix(1, 0, 0, 1, 548.666, 56.323)">
        <tspan x="-59.31" y="-13.5" font-family="Avenir-Medium" font-size="36" fill="#656565">Output </tspan>
        <tspan x="-91.494" y="35.5" font-family="Avenir-Medium" font-size="36" fill="#656565">Waveforms</tspan>
      </text>
      <g>
        <path d="M19.167,87.436 L19.167,300.677" fill-opacity="0" stroke="#656565" stroke-width="3"/>
        <path d="M307.167,197.436 L19.167,197.436" fill-opacity="0" stroke="#656565" stroke-width="3"/>
      </g>
      <g>
        <path d="M393.833,87.436 L393.833,300.677" fill-opacity="0" stroke="#656565" stroke-width="3"/>
        <path d="M681.833,197.436 L393.833,197.436" fill-opacity="0" stroke="#656565" stroke-width="3"/>
      </g>
      <g>
        <path d="M19.167,336.436 L19.167,549.677" fill-opacity="0" stroke="#656565" stroke-width="3"/>
        <path d="M307.167,446.436 L19.167,446.436" fill-opacity="0" stroke="#656565" stroke-width="3"/>
      </g>
      <g>
        <path d="M19.167,590.436 L19.167,803.677" fill-opacity="0" stroke="#656565" stroke-width="3"/>
        <path d="M307.167,700.436 L19.167,700.436" fill-opacity="0" stroke="#656565" stroke-width="3"/>
      </g>
      <g>
        <path d="M393.833,336.436 L393.833,549.677" fill-opacity="0" stroke="#656565" stroke-width="3"/>
        <path d="M681.833,446.436 L393.833,446.436" fill-opacity="0" stroke="#656565" stroke-width="3"/>
      </g>
      <g>
        <path d="M393.833,590.436 L393.833,803.677" fill-opacity="0" stroke="#656565" stroke-width="3"/>
        <path d="M681.833,700.436 L393.833,700.436" fill-opacity="0" stroke="#656565" stroke-width="3"/>
      </g>
      <path d="M341.625,165.83 L341.625,183.35 L324.105,183.35 L324.105,216.969 L341.625,216.969 L341.625,235.436 L376.665,200.396 L341.625,165.83" fill="#DCDCDC"/>
      <path d="M331.12,20.33 L331.12,45.904 L292.6,45.904 L292.6,94.979 L331.12,94.979 L331.12,121.936 L408.16,70.787 L331.12,20.33" fill="#EFBBBC"/>
      <path d="M341.62,415.25 L341.62,432.77 L324.1,432.77 L324.1,466.389 L341.62,466.389 L341.62,484.856 L376.66,449.816 L341.62,415.25" fill="#DCDCDC"/>
      <path d="M341.62,664.254 L341.62,681.773 L324.1,681.773 L324.1,715.393 L341.62,715.393 L341.62,733.86 L376.66,698.82 L341.62,664.254" fill="#DCDCDC"/>
      <path d="M21.166,446.186 L57.372,446.186 L57.372,372.186 L130.166,372.186 L130.166,446.186 L200.166,446.186 L200.166,372.186 L237.166,372.186" fill-opacity="0" stroke="#149696" stroke-width="3"/>
      <g>
        <text transform="matrix(1, 0, 0, 1, 350.382, 51.633)">
          <tspan x="-22.338" y="11" font-family="Avenir-Medium" font-size="36" fill="#656565">dV</tspan>
        </text>
        <text transform="matrix(1, 0, 0, 1, 350.382, 90.633)">
          <tspan x="-17.658" y="11" font-family="Avenir-Medium" font-size="36" fill="#656565">dt</tspan>
        </text>
        <path d="M328.544,69.133 L373.22,69.133" fill-opacity="0" stroke="#656565" stroke-width="3"/>
      </g>
      <g>
        <g>
          <path d="M19.167,198.633 C19.167,198.633 40.389,129.007 73.737,129.498" fill-opacity="0" stroke="#149696" stroke-width="3"/>
          <path d="M126.793,198.633 C126.793,198.633 105.57,129.007 72.222,129.498" fill-opacity="0" stroke="#149696" stroke-width="3"/>
        </g>
        <g>
          <path d="M126.793,198.633 C126.793,198.633 148.015,268.259 181.363,267.769" fill-opacity="0" stroke="#149696" stroke-width="3"/>
          <path d="M234.418,198.633 C234.418,198.633 213.196,268.259 179.848,267.769" fill-opacity="0" stroke="#149696" stroke-width="3"/>
        </g>
      </g>
      <g>
        <path d="M556.03,198.633 C556.03,198.633 577.252,129.007 610.601,129.498" fill-opacity="0" stroke="#43699F" stroke-width="3"/>
        <path d="M448.404,198.633 C448.404,198.633 427.182,129.007 393.833,129.498" fill-opacity="0" stroke="#43699F" stroke-width="3"/>
        <g>
          <path d="M448.404,198.633 C448.404,198.633 469.626,268.259 502.975,267.769" fill-opacity="0" stroke="#43699F" stroke-width="3"/>
          <path d="M556.03,198.633 C556.03,198.633 534.808,268.259 501.459,267.769" fill-opacity="0" stroke="#43699F" stroke-width="3"/>
        </g>
      </g>
      <path d="M393.832,447.917 L429.832,447.917 L429.832,373.909 C429.832,373.909 430.498,447.917 454.498,447.917 L501.832,447.917 L501.832,520.202 C501.832,520.202 502.498,446.194 526.498,446.194 L573.832,446.194 L573.832,372.186 C573.832,372.186 574.498,446.194 598.498,446.194 L634.498,446.194" fill-opacity="0" stroke="#43699F" stroke-width="3"/>
      <path d="M19.519,699.86 L91.271,630.254 L162.519,699.86 L234.066,630.254" fill-opacity="0" stroke="#149696" stroke-width="3"/>
      <path d="M394.769,699.86 L394.769,628.043 L466.662,628.043 L466.662,699.86 L537.564,699.86 L537.564,628.043 L609.662,628.043" fill-opacity="0" stroke="#43699F" stroke-width="3"/>
    </g>
  </g>
</svg>
