<?xml version="1.0" encoding="utf-8"?>
<!-- Generator: Adobe Adobe Illustrator 24.2.0, SVG Export Plug-In . SVG Version: 6.00 Build 0)  -->
<svg version="1.1" id="Layer_1" xmlns="http://www.w3.org/2000/svg" xmlns:xlink="http://www.w3.org/1999/xlink" x="0px" y="0px"
	 width="7938.45px" height="4490px" viewBox="0 0 7938.45 4490" style="enable-background:new 0 0 7938.45 4490;"
	 xml:space="preserve">
<style type="text/css">
	.st0{display:none;fill:none;stroke:#000000;stroke-width:15;stroke-miterlimit:10;}
	.st1{display:none;fill:none;stroke:#000000;stroke-miterlimit:10;}
	.st2{fill:none;stroke:#000000;stroke-width:15;stroke-miterlimit:10;}
	.st3{fill:none;stroke:#000000;stroke-width:15;stroke-linecap:square;stroke-miterlimit:10;}
</style>
<polyline class="st2" points="6240.66,542.95 6590.66,542.95 6590.95,2733.61 6240.66,2731.18 "/>
<polyline class="st2" points="5818.83,783.77 898.82,783.67 889.7,2504.33 "/>
<polyline class="st2" points="5817.73,1126.15 1392.61,1130.6 1397.62,2845.54 "/>
<polyline class="st2" points="5822.11,1469.54 1917.22,1473.53 1922.02,4048.85 "/>
<polyline class="st2" points="5834.43,2489.33 5337.49,2489.28 5334.51,3859.72 "/>
<polyline class="st2" points="2925.68,2662.64 3282.17,2662.64 3282.17,3687.36 4112,3686.73 "/>
<line class="st2" x1="435.34" y1="2504.33" x2="2236.15" y2="2503.47"/>
<line class="st2" x1="435.34" y1="2845.54" x2="2226.81" y2="2845.54"/>
<line class="st2" x1="435.34" y1="4049.85" x2="4127" y2="4049.85"/>
<line class="st2" x1="5834.43" y1="3859.72" x2="4803.2" y2="3859.72"/>
<path class="st2" d="M2171.22,2311.93c113.32,295.91,112.16,359.72,0,701.4"/>
<path class="st2" d="M2267.17,2311.93c0,0,37.34,0,231.03,0s427.48,350.7,427.48,350.7s-225.8,350.7-419.48,350.7
	c-48.42,0-229.16,2.48-234.06,0c0,0,85.32-168.21,85.32-350.7C2357.46,2496.09,2267.17,2311.93,2267.17,2311.93z"/>
<path class="st2" d="M4055.22,3508.47c113.32,295.91,112.16,359.72,0,701.4"/>
<path class="st2" d="M4151.17,3508.47c0,0,37.34,0,231.03,0s427.48,350.7,427.48,350.7s-225.79,350.7-419.48,350.7
	c-48.42,0-229.16,2.48-234.06,0c0,0,85.32-168.21,85.32-350.7C4241.46,3692.62,4151.17,3508.47,4151.17,3508.47z"/>
<g>
	<g>
		<path d="M5934.81,2449.32h43.84c22.48,0,37.84,12.55,37.84,33.59c0,22.5-16.2,34.43-38.77,34.43h-27.5v47.44h-15.42V2449.32z
			 M5950.22,2504.46h26.74c15.81,0,23.73-7.72,23.73-21.15c0-14.07-9.58-21.1-23.13-21.1h-27.35V2504.46z"/>
	</g>
</g>
<g>
	<g>
		<path d="M6024.16,1476.7c-5.12,19.6-19.73,34.18-45.94,34.18c-34.53,0-51.95-26.2-51.95-58.83c0-31.37,17.44-59.73,52.52-59.73
			c27.23,0,42,15.53,45.41,34.83h-15.31c-4.14-12.57-12.46-22.06-30.72-22.06c-25.47,0-35.88,23.15-35.88,46.51
			c0,22.66,9.89,46.53,36.54,46.53c17.8,0,25.61-10.2,29.94-21.42H6024.16z"/>
	</g>
</g>
<g>
	<g>
		<path d="M5932.72,1043.97h44.31c24.41,0,35.77,12.84,35.77,28.84c0,13.42-7.71,22.15-16.57,25.16
			c8.06,2.56,20.37,10.69,20.37,27.65c0,21.76-16.6,33.82-38.49,33.82h-45.39V1043.97z M5974.1,1091.98
			c16.73,0,23.25-6.59,23.25-17.85c0-10.22-7.32-17.51-20.88-17.51h-28.73v35.37H5974.1z M5947.74,1146.79h28.52
			c14.5,0,24.58-6.81,24.58-21.2c0-12.54-8.05-20.96-27.51-20.96h-25.59V1146.79z"/>
	</g>
</g>
<g>
	<g>
		<path d="M5951.81,797.91l-12.42,34.64h-15.24l41.12-115.46h18.85l42.89,115.46h-16.31l-12.81-34.64H5951.81z M5993.96,784.79
			c-11-30.35-17.06-46.47-19.56-55.27h-0.17c-2.82,9.79-9.58,29.31-18.45,55.27H5993.96z"/>
	</g>
</g>
<g>
	<g>
		<path d="M264.72,2773.49h44.31c24.41,0,35.77,12.84,35.77,28.84c0,13.42-7.71,22.15-16.57,25.16
			c8.06,2.56,20.37,10.69,20.37,27.65c0,21.76-16.6,33.82-38.49,33.82h-45.39V2773.49z M306.1,2821.5
			c16.73,0,23.25-6.59,23.25-17.85c0-10.22-7.32-17.51-20.88-17.51h-28.73v35.37H306.1z M279.74,2876.31h28.52
			c14.5,0,24.58-6.81,24.58-21.2c0-12.54-8.05-20.96-27.51-20.96h-25.59V2876.31z"/>
	</g>
</g>
<g>
	<g>
		<path d="M366.16,4086.21c-5.12,19.6-19.73,34.18-45.94,34.18c-34.53,0-51.95-26.2-51.95-58.83c0-31.37,17.44-59.73,52.52-59.73
			c27.23,0,42,15.53,45.41,34.83H350.9c-4.14-12.57-12.46-22.06-30.72-22.06c-25.47,0-35.88,23.15-35.88,46.51
			c0,22.66,9.89,46.53,36.54,46.53c17.8,0,25.61-10.2,29.94-21.42H366.16z"/>
	</g>
</g>
<g>
	<g>
		<path d="M283.81,2527.43l-12.42,34.64h-15.24l41.12-115.46h18.85l42.89,115.46h-16.31l-12.81-34.64H283.81z M325.96,2514.31
			c-11-30.35-17.06-46.47-19.56-55.27h-0.17c-2.82,9.79-9.58,29.31-18.45,55.27H325.96z"/>
	</g>
</g>
<g>
	<g>
		<path d="M5935.81,3807.32h43.84c22.48,0,37.84,12.55,37.84,33.59c0,22.5-16.2,34.43-38.77,34.43h-27.5v47.44h-15.42V3807.32z
			 M5951.22,3862.46h26.74c15.81,0,23.73-7.72,23.73-21.15c0-14.07-9.58-21.1-23.13-21.1h-27.35V3862.46z"/>
	</g>
</g>
<g>
	<g>
		<path d="M6935.72,1591.37v-28.13h-51.31v-13.19l49.68-67.89h15.56v68.58h14.12l-1.57,12.49h-12.55v28.13H6935.72z
			 M6935.72,1523.19c0-8.43,0.11-19.22,0.39-26.35c-4.42,8.44-25.72,37.54-37.39,53.9h37V1523.19z"/>
		<path d="M7063.01,1542.26v13.19h-43.58v-13.19H7063.01z"/>
		<path d="M7129.8,1475.91h44.31c24.41,0,35.77,12.84,35.77,28.84c0,13.42-7.71,22.15-16.57,25.16
			c8.06,2.56,20.37,10.69,20.37,27.65c0,21.76-16.6,33.82-38.49,33.82h-45.39V1475.91z M7171.19,1523.92
			c16.73,0,23.25-6.59,23.25-17.85c0-10.22-7.32-17.51-20.88-17.51h-28.73v35.37H7171.19z M7144.83,1578.73h28.52
			c14.5,0,24.58-6.81,24.58-21.2c0-12.54-8.05-20.96-27.51-20.96h-25.59V1578.73z"/>
		<path d="M7234.23,1469.53h14.53v18.15h-14.53V1469.53z M7234.23,1507.22h14.53v84.15h-14.53V1507.22z"/>
		<path d="M7262.76,1507.22h14.55v-24.83h14.53v24.83h18.57v11.85h-18.57v49.29c0,8.18,1.99,12.37,9.61,12.37
			c2.02,0,5.03-0.11,7.34-0.7v10.95c-3.58,1.34-8.57,1.55-12.58,1.55c-13.09,0-18.89-6.78-18.89-20.76v-52.7h-14.55V1507.22z"/>
		<path d="M7443.7,1537.4h-57.42v40.86h63.07l-1.97,13.12h-76.11v-115.46h75.19v13.12h-60.18v35.26h57.42V1537.4z"/>
		<path d="M7472.68,1507.22c11.33,34.42,19.62,60.13,22.19,70.64h0.17c2.06-9.37,11-34.57,23.63-70.64h14.79l-30.95,84.15h-16.01
			l-29.36-84.15H7472.68z"/>
		<path d="M7556.58,1551.94c0.11,17.12,8.72,29.28,23.01,29.28c13.31,0,17.62-6.86,20.31-13.01h14.63
			c-3.31,10.78-12.34,25.16-35.4,25.16c-26.46,0-37.25-21.5-37.25-43.17c0-25.02,12.61-44.97,38.19-44.97
			c27.14,0,36.04,21.78,36.04,39.73c0,2.56,0,4.71-0.22,6.98H7556.58z M7601.37,1541.7c-0.17-13.84-7.13-24.97-21.51-24.97
			c-14.8,0-21.31,10.3-22.78,24.97H7601.37z"/>
		<path d="M7634.72,1528.42c0-7.3,0-14.68-0.17-21.2h14.13c0.39,2.48,0.62,11.33,0.57,13.83c3.36-7.23,10.22-15.82,26.49-15.82
			c15.77,0,28.12,9.65,28.12,32.02v54.12h-14.53v-52.27c0-12.71-4.96-21.28-17.82-21.28c-15.87,0-22.26,12.08-22.26,28.99v44.55
			h-14.53V1528.42z"/>
		<path d="M6893.66,1675.05h43.84c22.48,0,37.84,12.55,37.84,33.6c0,22.5-16.2,34.42-38.77,34.42h-27.5v47.44h-15.42V1675.05z
			 M6909.08,1730.19h26.74c15.81,0,23.73-7.72,23.73-21.15c0-14.07-9.58-21.1-23.13-21.1h-27.35V1730.19z"/>
		<path d="M7057.95,1772.16c0,7.65,0.66,15.93,1.16,18.35h-13.9c-0.66-1.87-1.16-5.88-1.38-11.02c-2.94,5.61-9.65,13.01-25.98,13.01
			c-19.84,0-28.31-12.92-28.31-25.72c0-18.78,14.75-27.38,39.76-27.38c5.85,0,11.21,0,14.35,0v-7.17c0-7.42-2.37-16.48-18.12-16.48
			c-14.06,0-16.43,6.97-17.96,13.54h-14.06c1.11-11.6,8.28-25,32.48-24.94c20.56,0.06,31.95,8.44,31.95,27.57V1772.16z
			 M7043.77,1749.49c-2.68,0-9.08,0-13.62,0c-16.78,0-25.76,4.64-25.76,16.5c0,8.75,6,15.12,16.38,15.12c20.26,0,23-13.65,23-28.93
			V1749.49z"/>
		<path d="M7083.06,1729.22c0-11.77-0.11-18.39-0.17-22.86h14.24c0.22,2.36,0.45,8.96,0.45,17.18c4.4-11.39,14.43-18.74,28.35-19.17
			v14.49c-17.26,0.52-28.35,9.53-28.35,30.8v40.86h-14.53V1729.22z"/>
		<path d="M7141.47,1668.68H7156v18.15h-14.53V1668.68z M7141.47,1706.36H7156v84.15h-14.53V1706.36z"/>
		<path d="M7170,1706.36h14.55v-24.83h14.53v24.83h18.57v11.85h-18.57v49.29c0,8.18,1.99,12.37,9.61,12.37
			c2.02,0,5.03-0.11,7.34-0.7v10.95c-3.58,1.34-8.57,1.55-12.58,1.55c-13.09,0-18.89-6.78-18.89-20.76v-52.7H7170V1706.36z"/>
		<path d="M7238.75,1706.36c13.59,40.29,21.07,62.64,23.3,71.19h0.17c2.73-9.54,8.72-28.79,22.47-71.19h14.68l-30.26,88.03
			c-8.56,24.62-14.89,30.86-32.12,30.86c-2.63,0-5.8-0.17-9.04-0.56v-12.65c2.14,0.27,4.58,0.44,6.94,0.44
			c10.66,0,14.71-4.69,19.67-18.73l-31.52-87.39H7238.75z"/>
		<path d="M7449.76,1757.78c-5.12,19.6-19.73,34.18-45.94,34.18c-34.53,0-51.95-26.2-51.95-58.83c0-31.37,17.44-59.73,52.52-59.73
			c27.23,0,42,15.53,45.41,34.83h-15.31c-4.14-12.57-12.46-22.06-30.72-22.06c-25.47,0-35.88,23.15-35.88,46.51
			c0,22.66,9.89,46.53,36.54,46.53c17.8,0,25.61-10.2,29.94-21.42H7449.76z"/>
		<path d="M7541.71,1748.27c0,24.24-13.9,44.23-39.62,44.23c-24.11,0-38.69-18.66-38.69-43.95c0-24.85,14.29-44.19,39.64-44.19
			C7526.4,1704.37,7541.71,1721.86,7541.71,1748.27z M7478.36,1748.44c0,18.46,9.21,31.92,24.33,31.92
			c15.4,0,24.05-12.77,24.05-31.86c0-18.94-8.61-31.98-24.38-31.98C7486.61,1716.52,7478.36,1729.23,7478.36,1748.44z"/>
		<path d="M7630.65,1668.68v98.06c0,7.91,0,15.66,0.17,23.78h-13.96c-0.39-2.23-0.67-8.67-0.73-11.94
			c-4.15,8.77-12.68,13.93-26.47,13.93c-21.63,0-34.93-17.53-34.93-43.19c0-25.91,14.34-44.95,37.62-44.95
			c14.89,0,21.53,6.02,23.78,10.74v-46.44H7630.65z M7569.8,1748.87c0,20.33,9.67,31.31,22.88,31.31c19.67,0,24-14.51,24-32.97
			c0-18.71-3.91-30.52-22.86-30.52C7578.98,1716.69,7569.8,1728.45,7569.8,1748.87z"/>
		<path d="M7664.11,1751.08c0.11,17.12,8.72,29.28,23.01,29.28c13.31,0,17.62-6.86,20.31-13.01h14.63
			c-3.31,10.78-12.34,25.16-35.4,25.16c-26.46,0-37.25-21.51-37.25-43.17c0-25.02,12.61-44.97,38.19-44.97
			c27.14,0,36.04,21.78,36.04,39.73c0,2.56,0,4.71-0.22,6.98H7664.11z M7708.9,1740.84c-0.17-13.84-7.13-24.97-21.51-24.97
			c-14.8,0-21.31,10.3-22.78,24.97H7708.9z"/>
	</g>
</g>
<g>
	<g>
		<path d="M1685.86,213.11h22.09V360.8h86.9l-3.07,18.93h-105.92V213.11z"/>
		<path d="M1920.57,318.77c0,34.98-20.05,63.83-57.17,63.83c-34.79,0-55.84-26.92-55.84-63.42c0-35.86,20.61-63.76,57.2-63.76
			C1898.47,255.42,1920.57,280.66,1920.57,318.77z M1829.15,319.01c0,26.63,13.29,46.06,35.11,46.06c22.22,0,34.7-18.43,34.7-45.97
			c0-27.33-12.42-46.14-35.18-46.14C1841.07,272.95,1829.15,291.29,1829.15,319.01z"/>
		<path d="M2047.95,368.79c0,38.91-16.07,61.06-55.71,61.06c-36.81,0-48.13-20.62-50.33-37.12h21.37
			c3.55,13.3,14.23,20.36,29.86,20.36c27.57,0,34.41-17.49,34.41-45.44v-9.82c-6.47,13.61-17.61,21.32-37.96,21.32
			c-29.88,0-50.25-24.36-50.25-59.95c0-39.64,23.07-63.76,52.43-63.76c23.15,0,33.01,10.9,35.77,18.95
			c0.24-5.5,0.73-13.55,0.97-16.08h19.82c-0.08,7.02-0.39,23.4-0.39,35.06V368.79z M1961.11,318.28c0,25.61,13.31,42.99,33.16,42.99
			c26.2,0,33.86-17.59,33.86-44.56c0-27.29-7.2-43.49-33.14-43.49C1972.54,273.21,1961.11,291.99,1961.11,318.28z"/>
		<path d="M2083.69,203.91h20.96v26.2h-20.96V203.91z M2083.69,258.29h20.96v121.43h-20.96V258.29z"/>
		<path d="M2236.28,342.57c-5.15,20.9-19.3,40.03-50.19,40.03c-33.41,0-54.13-24.05-54.13-62.94c0-34.33,19.43-64.24,55.65-64.24
			c34.99,0,47.11,24.94,48.67,40.61h-20.78c-3-12.36-10.74-23.07-28.3-23.07c-21.48,0-33.65,18.41-33.65,45.97
			c0,27.65,11.8,46.23,32.87,46.23c15.19,0,24.03-8.1,28.99-22.58H2236.28z"/>
		<path d="M2458.15,332.49c-7.39,28.28-28.47,49.33-66.29,49.33c-49.83,0-74.96-37.81-74.96-84.9c0-45.26,25.16-86.19,75.79-86.19
			c39.3,0,60.61,22.41,65.53,50.25h-22.09c-5.97-18.15-17.98-31.83-44.32-31.83c-36.75,0-51.77,33.41-51.77,67.11
			c0,32.7,14.27,67.14,52.73,67.14c25.69,0,36.95-14.72,43.21-30.91H2458.15z"/>
		<path d="M2486.47,203.91h20.96v26.2h-20.96V203.91z M2486.47,258.29h20.96v121.43h-20.96V258.29z"/>
		<path d="M2543.23,291.29c0-16.98-0.15-26.53-0.24-32.99h20.55c0.32,3.41,0.65,12.94,0.65,24.79c6.35-16.43,20.83-27.04,40.9-27.66
			v20.9c-24.91,0.74-40.9,13.75-40.9,44.45v58.96h-20.96V291.29z"/>
		<path d="M2723.36,342.57c-5.15,20.9-19.3,40.03-50.19,40.03c-33.41,0-54.13-24.05-54.13-62.94c0-34.33,19.43-64.24,55.65-64.24
			c34.99,0,47.11,24.94,48.67,40.61h-20.78c-3-12.36-10.74-23.07-28.3-23.07c-21.48,0-33.65,18.41-33.65,45.97
			c0,27.65,11.8,46.23,32.87,46.23c15.19,0,24.03-8.1,28.99-22.58H2723.36z"/>
		<path d="M2846.14,344.34c0,11.82,0.15,28.21,0.24,35.39h-20.4c-0.48-3.2-0.72-10.59-0.8-18.21
			c-5.96,13.45-17.67,21.08-36.77,21.08c-20.46,0-40.12-10.18-40.12-44.45v-79.86h20.81v75.37c0,15.96,5,30.67,25.15,30.67
			c22.33,0,30.94-12.37,30.94-42.72v-63.32h20.96V344.34z"/>
		<path d="M2882.08,203.91h20.96v26.2h-20.96V203.91z M2882.08,258.29h20.96v121.43h-20.96V258.29z"/>
		<path d="M2923.25,258.29h21v-35.83h20.96v35.83h26.8v17.11h-26.8v71.13c0,11.8,2.87,17.85,13.86,17.85
			c2.91,0,7.26-0.15,10.59-1.01v15.79c-5.17,1.93-12.36,2.24-18.15,2.24c-18.89,0-27.25-9.78-27.25-29.96V275.4h-21V258.29z"/>
		<path d="M3225.11,295.48c0,45.82-25.7,86.64-78.19,86.64c-49.04,0-76.41-37.91-76.41-85.7c0-47.67,27.94-85.7,78.34-85.7
			C3195.77,210.72,3225.11,245.95,3225.11,295.48z M3093.65,295.7c0,36.01,18.43,67.58,54.25,67.58c38.68,0,54.08-31.88,54.08-67.48
			c0-35.9-17.46-66.24-54.03-66.24C3110.19,229.56,3093.65,260.15,3093.65,295.7z"/>
		<path d="M3259.35,379.73V275.4h-19.58v-17.11h19.58v-14.54c0-22.32,8.55-42.23,35.37-42.23c4.44,0,10.47,0.63,13.43,1.59v17.77
			c-2.91-0.7-7.39-1.1-10.64-1.1c-12.52,0-17.19,7.51-17.19,25.29v13.22h24.32v17.11h-24.32v104.33H3259.35z"/>
		<path d="M3492.53,301.84h-82.86v58.96h91l-2.85,18.93H3388V213.11h108.5v18.93h-86.83v50.87h82.86V301.84z"/>
		<path d="M3534.36,258.29c16.34,49.67,28.31,86.77,32.01,101.93h0.24c2.97-13.52,15.88-49.88,34.1-101.93h21.34l-44.67,121.43
			h-23.1l-42.37-121.43H3534.36z"/>
		<path d="M3655.42,322.82c0.15,24.7,12.58,42.25,33.2,42.25c19.2,0,25.42-9.89,29.31-18.78h21.12
			c-4.77,15.55-17.81,36.31-51.08,36.31c-38.18,0-53.75-31.03-53.75-62.29c0-36.11,18.19-64.89,55.1-64.89
			c39.17,0,52,31.43,52,57.33c0,3.69,0,6.79-0.32,10.07H3655.42z M3720.05,308.04c-0.24-19.98-10.29-36.03-31.04-36.03
			c-21.36,0-30.75,14.87-32.87,36.03H3720.05z"/>
		<path d="M3768.19,288.89c0-10.54,0-21.19-0.24-30.6h20.38c0.56,3.58,0.89,16.34,0.82,19.95c4.84-10.43,14.75-22.83,38.23-22.83
			c22.75,0,40.57,13.92,40.57,46.21v78.1h-20.96v-75.42c0-18.34-7.16-30.71-25.71-30.71c-22.9,0-32.12,17.43-32.12,41.84v64.29
			h-20.96V288.89z"/>
		<path d="M3968.23,213.11h63.26c32.43,0,54.61,18.1,54.61,48.48c0,32.46-23.38,49.68-55.95,49.68h-39.68v68.46h-22.24V213.11z
			 M3990.48,292.68h38.59c22.82,0,34.25-11.15,34.25-30.52c0-20.31-13.83-30.45-33.37-30.45h-39.46V292.68z"/>
		<path d="M4205.31,353.24c0,11.05,0.96,22.99,1.68,26.48h-20.06c-0.96-2.7-1.68-8.48-1.99-15.9c-4.24,8.1-13.93,18.77-37.49,18.77
			c-28.63,0-40.85-18.64-40.85-37.11c0-27.1,21.29-39.5,57.38-39.5c8.45,0,16.18,0,20.71,0v-10.35c0-10.7-3.42-23.78-26.14-23.78
			c-20.29,0-23.71,10.06-25.92,19.54h-20.28c1.61-16.73,11.95-36.07,46.87-35.99c29.67,0.08,46.1,12.17,46.1,39.79V353.24z
			 M4184.84,320.53c-3.87,0-13.11,0-19.65,0c-24.21,0-37.17,6.69-37.17,23.81c0,12.63,8.66,21.82,23.64,21.82
			c29.24,0,33.18-19.7,33.18-41.74V320.53z"/>
		<path d="M4241.54,291.29c0-16.98-0.15-26.53-0.24-32.99h20.55c0.32,3.41,0.65,12.94,0.65,24.79c6.35-16.43,20.83-27.04,40.9-27.66
			v20.9c-24.9,0.74-40.9,13.75-40.9,44.45v58.96h-20.96V291.29z"/>
		<path d="M4325.83,203.91h20.96v26.2h-20.96V203.91z M4325.83,258.29h20.96v121.43h-20.96V258.29z"/>
		<path d="M4367,258.29h21v-35.83h20.96v35.83h26.8v17.11h-26.8v71.13c0,11.8,2.87,17.85,13.86,17.85c2.91,0,7.26-0.15,10.59-1.01
			v15.79c-5.17,1.93-12.36,2.24-18.15,2.24c-18.89,0-27.25-9.78-27.25-29.96V275.4h-21V258.29z"/>
		<path d="M4466.21,258.29c19.61,58.14,30.4,90.39,33.62,102.72h0.24c3.94-13.76,12.59-41.54,32.42-102.72h21.19l-43.66,127.02
			c-12.35,35.53-21.48,44.53-46.34,44.53c-3.8,0-8.37-0.24-13.05-0.8v-18.25c3.08,0.39,6.61,0.63,10.01,0.63
			c15.38,0,21.22-6.77,28.39-27.03l-45.48-126.11H4466.21z"/>
		<path d="M4773.82,379.73h-16.97c-1.13-3.19-1.78-10.62-2.1-22.58c-7.26,11.83-21.62,24.84-51.75,24.84
			c-48.05,0-73.56-36.47-73.56-83.87c0-49.88,27.36-87.39,77.64-87.39c38.71,0,63.08,20.95,67.83,50.74h-22.09
			c-5.66-18.62-19.04-32.32-46.22-32.32c-38.68,0-54.03,30.87-54.03,67.92c0,34.33,15.47,66.34,53.11,66.34
			c37.33,0,46.6-24.84,46.6-52.97v-1.75h-46.91v-18.93h68.44V379.73z"/>
		<path d="M4821.63,322.82c0.15,24.7,12.58,42.25,33.2,42.25c19.2,0,25.42-9.89,29.31-18.78h21.12
			c-4.77,15.55-17.81,36.31-51.08,36.31c-38.18,0-53.75-31.03-53.75-62.29c0-36.11,18.19-64.89,55.1-64.89
			c39.17,0,52,31.43,52,57.33c0,3.69,0,6.79-0.32,10.07H4821.63z M4886.27,308.04c-0.24-19.98-10.29-36.03-31.04-36.03
			c-21.36,0-30.75,14.87-32.87,36.03H4886.27z"/>
		<path d="M4934.4,288.89c0-10.54,0-21.19-0.24-30.6h20.38c0.56,3.58,0.89,16.34,0.82,19.95c4.84-10.43,14.75-22.83,38.23-22.83
			c22.75,0,40.57,13.92,40.57,46.21v78.1h-20.96v-75.42c0-18.34-7.16-30.71-25.71-30.71c-22.9,0-32.12,17.43-32.12,41.84v64.29
			h-20.96V288.89z"/>
		<path d="M5082.42,322.82c0.15,24.7,12.58,42.25,33.2,42.25c19.2,0,25.42-9.89,29.31-18.78h21.12
			c-4.77,15.55-17.81,36.31-51.08,36.31c-38.18,0-53.75-31.03-53.75-62.29c0-36.11,18.19-64.89,55.1-64.89
			c39.17,0,52,31.43,52,57.33c0,3.69,0,6.79-0.32,10.07H5082.42z M5147.05,308.04c-0.24-19.98-10.29-36.03-31.04-36.03
			c-21.36,0-30.75,14.87-32.87,36.03H5147.05z"/>
		<path d="M5195.1,291.29c0-16.98-0.15-26.53-0.24-32.99h20.55c0.32,3.41,0.65,12.94,0.65,24.79c6.35-16.43,20.83-27.04,40.9-27.66
			v20.9c-24.9,0.74-40.9,13.75-40.9,44.45v58.96h-20.96V291.29z"/>
		<path d="M5369.84,353.24c0,11.05,0.96,22.99,1.68,26.48h-20.06c-0.96-2.7-1.68-8.48-1.99-15.9c-4.24,8.1-13.93,18.77-37.49,18.77
			c-28.63,0-40.85-18.64-40.85-37.11c0-27.1,21.29-39.5,57.38-39.5c8.45,0,16.18,0,20.71,0v-10.35c0-10.7-3.42-23.78-26.14-23.78
			c-20.29,0-23.71,10.06-25.92,19.54h-20.28c1.61-16.73,11.95-36.07,46.87-35.99c29.67,0.08,46.1,12.17,46.1,39.79V353.24z
			 M5349.38,320.53c-3.87,0-13.11,0-19.65,0c-24.21,0-37.17,6.69-37.17,23.81c0,12.63,8.66,21.82,23.64,21.82
			c29.24,0,33.18-19.7,33.18-41.74V320.53z"/>
		<path d="M5390.49,258.29h21v-35.83h20.96v35.83h26.8v17.11h-26.8v71.13c0,11.8,2.87,17.85,13.86,17.85
			c2.91,0,7.26-0.15,10.59-1.01v15.79c-5.17,1.93-12.36,2.24-18.15,2.24c-18.89,0-27.25-9.78-27.25-29.96V275.4h-21V258.29z"/>
		<path d="M5586.83,318.77c0,34.98-20.05,63.83-57.17,63.83c-34.79,0-55.84-26.92-55.84-63.42c0-35.86,20.61-63.76,57.2-63.76
			C5564.73,255.42,5586.83,280.66,5586.83,318.77z M5495.41,319.01c0,26.63,13.29,46.06,35.11,46.06c22.22,0,34.7-18.43,34.7-45.97
			c0-27.33-12.42-46.14-35.18-46.14C5507.33,272.95,5495.41,291.29,5495.41,319.01z"/>
		<path d="M5614.17,291.29c0-16.98-0.15-26.53-0.24-32.99h20.55c0.32,3.41,0.65,12.94,0.65,24.79c6.35-16.43,20.83-27.04,40.9-27.66
			v20.9c-24.9,0.74-40.9,13.75-40.9,44.45v58.96h-20.96V291.29z"/>
	</g>
</g>
</svg>
