<?xml version="1.0" encoding="UTF-8"?>
<!DOCTYPE svg PUBLIC "-//W3C//DTD SVG 1.1//EN" "http://www.w3.org/Graphics/SVG/1.1/DTD/svg11.dtd">
<svg version="1.1" xmlns="http://www.w3.org/2000/svg" xmlns:xlink="http://www.w3.org/1999/xlink" x="0" y="0" width="830" height="450" viewBox="0, 0, 830, 450">
  <g id="Layer_1">
    <g>
      <g>
        <path d="M532.919,267.393 L430.641,215.78 L430.641,318.532 L532.919,267.393 z" fill-opacity="0" stroke="#000000" stroke-width="3"/>
        <path d="M430.641,252.826 L138.156,252.826" fill-opacity="0" stroke="#000000" stroke-width="3"/>
        <path d="M532.919,267.393 L645.177,267.393" fill-opacity="0" stroke="#000000" stroke-width="3"/>
        <path d="M430.641,298.605 L389.177,298.605" fill-opacity="0" stroke="#000000" stroke-width="3"/>
        <path d="M389.177,298.605 L389.177,430.605" fill-opacity="0" stroke="#000000" stroke-width="3"/>
        <path d="M135.667,430.605 L642.688,430.605" fill-opacity="0" stroke="#000000" stroke-width="3"/>
        <path d="M394.305,254.826 L394.305,123.826" fill-opacity="0" stroke="#000000" stroke-width="3"/>
        <path d="M394.305,123.826 L574.177,123.826" fill-opacity="0" stroke="#000000" stroke-width="3"/>
        <path d="M574.177,123.826 L574.177,267.393" fill-opacity="0" stroke="#000000" stroke-width="2"/>
        <path d="M388.677,436.105 C385.363,436.105 382.677,433.419 382.677,430.105 C382.677,426.791 385.363,424.105 388.677,424.105 C391.991,424.105 394.677,426.791 394.677,430.105 C394.677,433.419 391.991,436.105 388.677,436.105 z" fill="#000000"/>
        <path d="M391.167,258.326 C387.853,258.326 385.167,255.64 385.167,252.326 C385.167,249.013 387.853,246.326 391.167,246.326 C394.48,246.326 397.167,249.013 397.167,252.326 C397.167,255.64 394.48,258.326 391.167,258.326 z" fill="#000000"/>
        <path d="M574.086,272.656 C570.772,272.656 568.086,269.97 568.086,266.656 C568.086,263.342 570.772,260.656 574.086,260.656 C577.399,260.656 580.086,263.342 580.086,266.656 C580.086,269.97 577.399,272.656 574.086,272.656 z" fill="#000000"/>
        <g>
          <path d="M650.677,272.893 C647.64,272.893 645.177,270.43 645.177,267.393 C645.177,264.355 647.64,261.893 650.677,261.893 C653.715,261.893 656.177,264.355 656.177,267.393 C656.177,270.43 653.715,272.893 650.677,272.893 z" fill="#FFFFFF"/>
          <path d="M650.677,272.893 C647.64,272.893 645.177,270.43 645.177,267.393 C645.177,264.355 647.64,261.893 650.677,261.893 C653.715,261.893 656.177,264.355 656.177,267.393 C656.177,270.43 653.715,272.893 650.677,272.893 z" fill-opacity="0" stroke="#000000" stroke-width="3"/>
        </g>
        <g>
          <path d="M650.677,436.105 C647.64,436.105 645.177,433.643 645.177,430.605 C645.177,427.567 647.64,425.105 650.677,425.105 C653.715,425.105 656.177,427.567 656.177,430.605 C656.177,433.643 653.715,436.105 650.677,436.105 z" fill="#FFFFFF"/>
          <path d="M650.677,436.105 C647.64,436.105 645.177,433.643 645.177,430.605 C645.177,427.567 647.64,425.105 650.677,425.105 C653.715,425.105 656.177,427.567 656.177,430.605 C656.177,433.643 653.715,436.105 650.677,436.105 z" fill-opacity="0" stroke="#000000" stroke-width="3"/>
        </g>
        <g>
          <path d="M132.656,258.326 C129.619,258.326 127.156,255.864 127.156,252.826 C127.156,249.789 129.619,247.326 132.656,247.326 C135.694,247.326 138.156,249.789 138.156,252.826 C138.156,255.864 135.694,258.326 132.656,258.326 z" fill="#FFFFFF"/>
          <path d="M132.656,258.326 C129.619,258.326 127.156,255.864 127.156,252.826 C127.156,249.789 129.619,247.326 132.656,247.326 C135.694,247.326 138.156,249.789 138.156,252.826 C138.156,255.864 135.694,258.326 132.656,258.326 z" fill-opacity="0" stroke="#000000" stroke-width="3"/>
        </g>
        <g>
          <path d="M132.656,436.105 C129.619,436.105 127.156,433.643 127.156,430.605 C127.156,427.567 129.619,425.105 132.656,425.105 C135.694,425.105 138.156,427.567 138.156,430.605 C138.156,433.643 135.694,436.105 132.656,436.105 z" fill="#FFFFFF"/>
          <path d="M132.656,436.105 C129.619,436.105 127.156,433.643 127.156,430.605 C127.156,427.567 129.619,425.105 132.656,425.105 C135.694,425.105 138.156,427.567 138.156,430.605 C138.156,433.643 135.694,436.105 132.656,436.105 z" fill-opacity="0" stroke="#000000" stroke-width="3"/>
        </g>
        <text transform="matrix(1, 0, 0, 1, 290.227, 282.393)">
          <tspan x="-17.505" y="9" font-family="Avenir-Medium" font-size="30" fill="#656565">R1</tspan>
        </text>
        <text transform="matrix(1, 0, 0, 1, 481.28, 166.634)">
          <tspan x="-18.9" y="8" font-family="Avenir-Medium" font-size="30" fill="#656565">C1</tspan>
        </text>
        <text transform="matrix(1, 0, 0, 1, 446.363, 249.032)">
          <tspan x="-5.688" y="11" font-family="Avenir-Medium" font-size="36" fill="#656565">-</tspan>
        </text>
        <text transform="matrix(1, 0, 0, 1, 446.363, 297.069)">
          <tspan x="-8.325" y="4.036" font-family="Avenir-Medium" font-size="25" fill="#656565">+</tspan>
        </text>
        <g>
          <path d="M472.383,144.634 L472.383,102.018 L489.383,102.018 L489.383,144.634 L472.383,144.634 z" fill="#FFFFFF"/>
          <path d="M471.195,145.134 L471.195,102.518" fill-opacity="0" stroke="#000000" stroke-width="12"/>
          <path d="M492.366,145.134 L492.366,102.518" fill-opacity="0" stroke="#000000" stroke-width="12"/>
        </g>
        <g>
          <path d="M319.768,241.699 L319.768,263.954 L249.029,263.954 L249.029,241.699 L319.768,241.699 z" fill="#FFFFFF"/>
          <path d="M319.768,241.699 L319.768,263.954 L249.029,263.954 L249.029,241.699 L319.768,241.699 z" fill-opacity="0" stroke="#000000" stroke-width="2"/>
        </g>
        <text transform="matrix(1, 0, 0, 1, 185.845, 343.032)">
          <tspan x="-42.678" y="11" font-family="Avenir-Medium" font-size="36" fill="#656565">Input</tspan>
        </text>
        <text transform="matrix(1, 0, 0, 1, 585.367, 346.562)">
          <tspan x="-59.31" y="11" font-family="Avenir-Medium" font-size="36" fill="#656565">Output</tspan>
        </text>
        <g>
          <path d="M132.656,418.562 L132.656,275.554" fill-opacity="0" stroke="#A3A3A3" stroke-width="4"/>
          <path d="M132.656,275.554 L137.456,278.754 L132.656,265.954 L127.856,278.754 z" fill="#A3A3A3" fill-opacity="1" stroke="#A3A3A3" stroke-width="4" stroke-opacity="1"/>
        </g>
        <g>
          <path d="M650.677,420.836 L650.677,292.351" fill-opacity="0" stroke="#A3A3A3" stroke-width="4"/>
          <path d="M650.677,292.351 L655.477,295.551 L650.677,282.751 L645.877,295.551 z" fill="#A3A3A3" fill-opacity="1" stroke="#A3A3A3" stroke-width="4" stroke-opacity="1"/>
        </g>
      </g>
      <path d="M79.667,137.562 L151.667,137.562 L151.667,198.562 L265.667,198.562" fill-opacity="0" stroke="#5A7BAB" stroke-width="3"/>
      <g>
        <path d="M594.333,233.228 L666.333,233.228 L718.333,158.228 L796.333,158.228" fill-opacity="0" stroke="#149696" stroke-width="3"/>
        <path d="M718,158.228 L767.608,87.955" fill-opacity="0" stroke="#149696" stroke-width="3" stroke-dasharray="9,6"/>
      </g>
      <text transform="matrix(1, 0, 0, 1, 655.851, 63.395)">
        <tspan x="-66.654" y="-13.5" font-family="Avenir-Medium" font-size="36" fill="#656565">Op amp</tspan>
        <tspan x="-81.684" y="35.5" font-family="Avenir-Medium" font-size="36" fill="#656565">saturation</tspan>
      </text>
      <text transform="matrix(1, 0, 0, 1, 55.515, 126.895)">
        <tspan x="-21.348" y="11" font-family="Avenir-Medium" font-size="36" fill="#656565">0V</tspan>
      </text>
      <g>
        <path d="M656.177,102.518 C662.844,123.935 685.932,139.219 700.14,146.855" fill-opacity="0" stroke="#DE787A" stroke-width="5"/>
        <path d="M700.14,146.855 L694.556,150.162 L709.874,151.533 L699.235,140.428 z" fill="#DE787A" fill-opacity="1" stroke="#DE787A" stroke-width="5" stroke-opacity="1"/>
      </g>
    </g>
  </g>
</svg>
