<?xml version="1.0" encoding="UTF-8"?>
<!DOCTYPE svg PUBLIC "-//W3C//DTD SVG 1.1//EN" "http://www.w3.org/Graphics/SVG/1.1/DTD/svg11.dtd">
<svg version="1.1" xmlns="http://www.w3.org/2000/svg" xmlns:xlink="http://www.w3.org/1999/xlink" x="0" y="0" width="570" height="460" viewBox="0, 0, 570, 460">
  <g id="Layer_1">
    <g>
      <path d="M426.753,276 L324.474,224.388 L324.474,327.14 L426.753,276 z" fill-opacity="0" stroke="#000000" stroke-width="3"/>
      <path d="M324.474,261.434 L31.989,261.434" fill-opacity="0" stroke="#000000" stroke-width="3"/>
      <path d="M426.753,276 L539.01,276" fill-opacity="0" stroke="#000000" stroke-width="3"/>
      <path d="M324.474,307.213 L283.01,307.213" fill-opacity="0" stroke="#000000" stroke-width="3"/>
      <path d="M283.01,307.213 L283.01,439.213" fill-opacity="0" stroke="#000000" stroke-width="3"/>
      <path d="M29.5,439.213 L536.521,439.213" fill-opacity="0" stroke="#000000" stroke-width="3"/>
      <path d="M288.138,263.434 L288.138,44.169" fill-opacity="0" stroke="#000000" stroke-width="3"/>
      <path d="M288.138,132.434 L468.01,132.434" fill-opacity="0" stroke="#000000" stroke-width="3"/>
      <path d="M286.588,44.169 L469.088,44.169" fill-opacity="0" stroke="#000000" stroke-width="3"/>
      <path d="M468.01,44.169 L468.01,276" fill-opacity="0" stroke="#000000" stroke-width="3"/>
      <path d="M282.51,444.713 C279.197,444.713 276.51,442.026 276.51,438.713 C276.51,435.399 279.197,432.713 282.51,432.713 C285.824,432.713 288.51,435.399 288.51,438.713 C288.51,442.026 285.824,444.713 282.51,444.713 z" fill="#000000"/>
      <path d="M285,266.934 C281.686,266.934 279,264.248 279,260.934 C279,257.62 281.686,254.934 285,254.934 C288.314,254.934 291,257.62 291,260.934 C291,264.248 288.314,266.934 285,266.934 z" fill="#000000"/>
      <path d="M288.51,137.934 C285.197,137.934 282.51,135.248 282.51,131.934 C282.51,128.62 285.197,125.934 288.51,125.934 C291.824,125.934 294.51,128.62 294.51,131.934 C294.51,135.248 291.824,137.934 288.51,137.934 z" fill="#000000"/>
      <path d="M467.919,281.264 C464.605,281.264 461.919,278.577 461.919,275.264 C461.919,271.95 464.605,269.264 467.919,269.264 C471.233,269.264 473.919,271.95 473.919,275.264 C473.919,278.577 471.233,281.264 467.919,281.264 z" fill="#000000"/>
      <path d="M467.919,137.934 C464.605,137.934 461.919,135.248 461.919,131.934 C461.919,128.62 464.605,125.934 467.919,125.934 C471.233,125.934 473.919,128.62 473.919,131.934 C473.919,135.248 471.233,137.934 467.919,137.934 z" fill="#000000"/>
      <g>
        <path d="M544.51,281.5 C541.473,281.5 539.01,279.038 539.01,276 C539.01,272.963 541.473,270.5 544.51,270.5 C547.548,270.5 550.01,272.963 550.01,276 C550.01,279.038 547.548,281.5 544.51,281.5 z" fill="#FFFFFF"/>
        <path d="M544.51,281.5 C541.473,281.5 539.01,279.038 539.01,276 C539.01,272.963 541.473,270.5 544.51,270.5 C547.548,270.5 550.01,272.963 550.01,276 C550.01,279.038 547.548,281.5 544.51,281.5 z" fill-opacity="0" stroke="#000000" stroke-width="3"/>
      </g>
      <g>
        <path d="M544.51,444.713 C541.473,444.713 539.01,442.25 539.01,439.213 C539.01,436.175 541.473,433.713 544.51,433.713 C547.548,433.713 550.01,436.175 550.01,439.213 C550.01,442.25 547.548,444.713 544.51,444.713 z" fill="#FFFFFF"/>
        <path d="M544.51,444.713 C541.473,444.713 539.01,442.25 539.01,439.213 C539.01,436.175 541.473,433.713 544.51,433.713 C547.548,433.713 550.01,436.175 550.01,439.213 C550.01,442.25 547.548,444.713 544.51,444.713 z" fill-opacity="0" stroke="#000000" stroke-width="3"/>
      </g>
      <g>
        <path d="M26.489,266.934 C23.452,266.934 20.989,264.471 20.989,261.434 C20.989,258.396 23.452,255.934 26.489,255.934 C29.527,255.934 31.989,258.396 31.989,261.434 C31.989,264.471 29.527,266.934 26.489,266.934 z" fill="#FFFFFF"/>
        <path d="M26.489,266.934 C23.452,266.934 20.989,264.471 20.989,261.434 C20.989,258.396 23.452,255.934 26.489,255.934 C29.527,255.934 31.989,258.396 31.989,261.434 C31.989,264.471 29.527,266.934 26.489,266.934 z" fill-opacity="0" stroke="#000000" stroke-width="3"/>
      </g>
      <g>
        <path d="M26.489,444.713 C23.452,444.713 20.989,442.25 20.989,439.213 C20.989,436.175 23.452,433.713 26.489,433.713 C29.527,433.713 31.989,436.175 31.989,439.213 C31.989,442.25 29.527,444.713 26.489,444.713 z" fill="#FFFFFF"/>
        <path d="M26.489,444.713 C23.452,444.713 20.989,442.25 20.989,439.213 C20.989,436.175 23.452,433.713 26.489,433.713 C29.527,433.713 31.989,436.175 31.989,439.213 C31.989,442.25 29.527,444.713 26.489,444.713 z" fill-opacity="0" stroke="#000000" stroke-width="3"/>
      </g>
      <text transform="matrix(1, 0, 0, 1, 181.394, 291)">
        <tspan x="-17.505" y="9" font-family="Avenir-Medium" font-size="30" fill="#656565">R1</tspan>
      </text>
      <text transform="matrix(1, 0, 0, 1, 384.177, 175.242)">
        <tspan x="-18.9" y="8" font-family="Avenir-Medium" font-size="30" fill="#656565">C1</tspan>
      </text>
      <text transform="matrix(1, 0, 0, 1, 340.197, 257.64)">
        <tspan x="-5.688" y="11" font-family="Avenir-Medium" font-size="36" fill="#656565">-</tspan>
      </text>
      <text transform="matrix(1, 0, 0, 1, 340.197, 305.676)">
        <tspan x="-8.325" y="4.036" font-family="Avenir-Medium" font-size="25" fill="#656565">+</tspan>
      </text>
      <g>
        <path d="M374.387,153.242 L374.387,110.626 L391.387,110.626 L391.387,153.242 L374.387,153.242 z" fill="#FFFFFF"/>
        <path d="M373.199,153.742 L373.199,111.126" fill-opacity="0" stroke="#000000" stroke-width="12"/>
        <path d="M394.37,153.742 L394.37,111.126" fill-opacity="0" stroke="#000000" stroke-width="12"/>
      </g>
      <g>
        <path d="M213.601,250.306 L213.601,272.561 L142.863,272.561 L142.863,250.306 L213.601,250.306 z" fill="#FFFFFF"/>
        <path d="M213.601,250.306 L213.601,272.561 L142.863,272.561 L142.863,250.306 L213.601,250.306 z" fill-opacity="0" stroke="#000000" stroke-width="2"/>
      </g>
      <text transform="matrix(1, 0, 0, 1, 79.678, 351.64)">
        <tspan x="-42.678" y="11" font-family="Avenir-Medium" font-size="36" fill="#656565">Input</tspan>
      </text>
      <text transform="matrix(1, 0, 0, 1, 479.201, 355.169)">
        <tspan x="-59.31" y="11" font-family="Avenir-Medium" font-size="36" fill="#656565">Output</tspan>
      </text>
      <text transform="matrix(1, 0, 0, 1, 383.284, 65.836)">
        <tspan x="-45.666" y="11" font-family="Avenir-Medium" font-size="36" fill="#656565">Reset</tspan>
      </text>
      <g>
        <path d="M26.489,427.169 L26.489,284.161" fill-opacity="0" stroke="#A3A3A3" stroke-width="4"/>
        <path d="M26.489,284.161 L31.289,287.361 L26.489,274.561 L21.689,287.361 z" fill="#A3A3A3" fill-opacity="1" stroke="#A3A3A3" stroke-width="4" stroke-opacity="1"/>
      </g>
      <g>
        <path d="M544.51,429.444 L544.51,300.959" fill-opacity="0" stroke="#A3A3A3" stroke-width="4"/>
        <path d="M544.51,300.959 L549.31,304.159 L544.51,291.359 L539.711,304.159 z" fill="#A3A3A3" fill-opacity="1" stroke="#A3A3A3" stroke-width="4" stroke-opacity="1"/>
      </g>
      <g>
        <g>
          <path d="M371.354,42.919 C371.354,46.371 368.555,49.169 365.104,49.169 C361.652,49.169 358.854,46.371 358.854,42.919 C358.854,39.467 361.652,36.669 365.104,36.669 C368.555,36.669 371.354,39.467 371.354,42.919 z" fill="#FFFFFF"/>
          <path d="M371.354,42.919 C371.354,46.371 368.555,49.169 365.104,49.169 C361.652,49.169 358.854,46.371 358.854,42.919 C358.854,39.467 361.652,36.669 365.104,36.669 C368.555,36.669 371.354,39.467 371.354,42.919 z" fill-opacity="0" stroke="#000000" stroke-width="2"/>
        </g>
        <g>
          <path d="M410.5,42.919 C410.5,46.371 407.702,49.169 404.25,49.169 C400.798,49.169 398,46.371 398,42.919 C398,39.467 400.798,36.669 404.25,36.669 C407.702,36.669 410.5,39.467 410.5,42.919 z" fill="#FFFFFF"/>
          <path d="M410.5,42.919 C410.5,46.371 407.702,49.169 404.25,49.169 C400.798,49.169 398,46.371 398,42.919 C398,39.467 400.798,36.669 404.25,36.669 C407.702,36.669 410.5,39.467 410.5,42.919 z" fill-opacity="0" stroke="#000000" stroke-width="2"/>
        </g>
        <path d="M362.184,34.759 L398,15.787" fill-opacity="0" stroke="#000000" stroke-width="4"/>
      </g>
      <path d="M371.824,36.919 L396.5,36.919 L396.5,50.419 L371.824,50.419 L371.824,36.919 z" fill="#FFFFFF"/>
    </g>
  </g>
</svg>
