<?xml version="1.0" encoding="utf-8"?>
<!-- Generator: Adobe Adobe Illustrator 24.2.0, SVG Export Plug-In . SVG Version: 6.00 Build 0)  -->
<svg version="1.1" id="Layer_1" xmlns="http://www.w3.org/2000/svg" xmlns:xlink="http://www.w3.org/1999/xlink" x="0px" y="0px"
	 width="8480px" height="3320px" viewBox="0 0 8480 3320" style="enable-background:new 0 0 8480 3320;" xml:space="preserve">
<style type="text/css">
	.st0{fill:none;stroke:#000000;stroke-width:13;stroke-miterlimit:10;}
	.st1{fill:none;stroke:#000000;stroke-width:7;stroke-miterlimit:10;}
	.st2{fill:none;stroke:#000000;stroke-width:9;stroke-linecap:round;stroke-miterlimit:10;stroke-dasharray:32,22,32,22,32,22;}
	.st3{fill:none;}
	.st4{font-family:'SourceSansPro-Regular';}
	.st5{font-size:149.1274px;}
	.st6{letter-spacing:10.08;}
	.st7{font-size:148px;}
	.st8{font-size:177px;}
	.st9{letter-spacing:-1.98;}
	.st10{fill:none;stroke:#000000;stroke-miterlimit:10;stroke-dasharray:0,0,0,0,0,0;}
	.st11{fill:none;stroke:#000000;stroke-width:12;stroke-miterlimit:10;stroke-dasharray:0,0,0,0,0,0;}
	.st12{fill:none;stroke:#000000;stroke-width:20;stroke-miterlimit:10;}
	.st13{fill:none;stroke:#000000;stroke-width:9;stroke-linecap:round;stroke-miterlimit:10;stroke-dasharray:32,0,32,0,32,0;}
</style>
<g>
	<rect x="111.45" y="-186.75" class="st3" width="1850.67" height="2489.98"/>
	<text transform="matrix(3.267949e-07 -0.9924 1 3.243244e-07 217.6284 2303.2166)" class="st4 st5 st6">Output Value (analogue %)</text>
	<line class="st0" x1="668.86" y1="270.17" x2="668.86" y2="2802.17"/>
	<line class="st0" x1="706.1" y1="1357.17" x2="631.63" y2="1357.17"/>
	<line class="st0" x1="1859.84" y1="2107.17" x2="1859.84" y2="2033.17"/>
	<line class="st0" x1="3067.56" y1="2111.22" x2="3067.56" y2="2037.22"/>
	<line class="st0" x1="3067.56" y1="2111.22" x2="3067.56" y2="2037.22"/>
	<line class="st0" x1="4249.64" y1="2111.07" x2="4249.64" y2="2037.07"/>
	<line class="st0" x1="4249.64" y1="2111.07" x2="4249.64" y2="2037.07"/>
	<line class="st0" x1="5437.23" y1="2111.07" x2="5437.23" y2="2037.07"/>
	<line class="st0" x1="6644.94" y1="2111.07" x2="6644.94" y2="2037.07"/>
	<line class="st0" x1="7832.53" y1="2111.07" x2="7832.53" y2="2037.07"/>
	<line class="st0" x1="706.1" y1="997.17" x2="631.63" y2="997.17"/>
	<line class="st0" x1="706.1" y1="637.17" x2="631.63" y2="637.17"/>
	<line class="st0" x1="706.1" y1="277.17" x2="631.63" y2="277.17"/>
	<line class="st0" x1="706.1" y1="1713.17" x2="631.63" y2="1713.17"/>
	<line class="st0" x1="706.1" y1="2070.17" x2="631.63" y2="2070.17"/>
	<line class="st1" x1="8431.45" y1="2070.17" x2="631.62" y2="2070.17"/>
	<line class="st0" x1="706.1" y1="2427.17" x2="631.63" y2="2427.17"/>
	<line class="st0" x1="706.1" y1="2784.17" x2="631.63" y2="2784.17"/>
	<rect x="345.55" y="216.11" class="st3" width="250.45" height="122.14"/>
	<text transform="matrix(1.0076 0 0 1 345.5474 321.4796)" class="st4 st7">100</text>
	<rect x="418.42" y="576.11" class="st3" width="250.45" height="122.14"/>
	<text transform="matrix(1.0076 0 0 1 418.4184 681.4796)" class="st4 st7">80</text>
	<rect x="418.42" y="936.11" class="st3" width="250.45" height="122.14"/>
	<text transform="matrix(1.0076 0 0 1 418.4184 1041.4796)" class="st4 st7">60</text>
	<rect x="418.42" y="1296.11" class="st3" width="250.45" height="122.14"/>
	<text transform="matrix(1.0076 0 0 1 418.4184 1401.4796)" class="st4 st7">40</text>
	<rect x="418.42" y="1652.11" class="st3" width="250.45" height="122.14"/>
	<text transform="matrix(1.0076 0 0 1 418.4184 1757.4796)" class="st4 st7">20</text>
	<rect x="494.91" y="2009.1" class="st3" width="250.45" height="122.14"/>
	<text transform="matrix(1.0076 0 0 1 494.9069 2114.4753)" class="st4 st7">0</text>
	<rect x="369.68" y="2366.1" class="st3" width="250.45" height="122.14"/>
	<text transform="matrix(1.0076 0 0 1 369.6845 2471.4797)" class="st4 st7">-20</text>
	<rect x="369.68" y="2723.1" class="st3" width="250.45" height="122.14"/>
	<text transform="matrix(1.0076 0 0 1 369.6845 2828.4797)" class="st4 st7">-40</text>
	<rect x="631.62" y="2198.97" class="st3" width="142.91" height="154"/>
	<text transform="matrix(1.0076 0 0 1 631.6205 2304.343)" class="st4 st7">0</text>
	<rect x="1819.21" y="2198.97" class="st3" width="142.91" height="154"/>
	<text transform="matrix(1.0076 0 0 1 1819.2085 2304.343)" class="st4 st7">2</text>
	<rect x="3026.92" y="2198.97" class="st3" width="142.91" height="154"/>
	<text transform="matrix(1.0076 0 0 1 3026.9229 2304.343)" class="st4 st7">4</text>
	<rect x="4225.49" y="2198.97" class="st3" width="142.91" height="154"/>
	<text transform="matrix(1.0076 0 0 1 4225.4863 2304.343)" class="st4 st7">6</text>
	<rect x="5403.01" y="2198.97" class="st3" width="142.91" height="154"/>
	<text transform="matrix(1.0076 0 0 1 5403.0093 2304.343)" class="st4 st7">8</text>
	<rect x="6560.4" y="2198.97" class="st3" width="261.67" height="154"/>
	<text transform="matrix(1.0076 0 0 1 6560.4004 2304.343)" class="st4 st7">10</text>
	<rect x="7758.05" y="2198.97" class="st3" width="229.47" height="154"/>
	<text transform="matrix(1.0076 0 0 1 7758.0552 2304.343)" class="st4 st7">12</text>
	<polyline class="st2" points="670.71,287.3 1859.84,2070.17 3059.7,273.91 4249.73,2070.17 5441.32,274.5 6638.93,2070.17 
		7835.84,273.95 8427.6,1175.78 	"/>
	<rect x="4249.64" y="2969.57" class="st3" width="791.99" height="210.9"/>
	<text transform="matrix(1.0076 0 0 1 4249.6387 3095.5974)" class="st4 st8 st9">Time (s)</text>
</g>
<path class="st11" d="M669.05,2070.2c0,0,337.33-739.72,572.76-739.72c384.6,0,837.59,1559.97,1208.9,1559.97
	c359.33,0,793.17-1549.85,1199.03-1549.85c392.94,0,819.4,1532.29,1166.31,1532.29c464.01,0,791.06-1531.9,1227.89-1531.9
	c376.68,0,828.58,1557.11,1173.01,1557.11c394.4,0,827.16-1569.14,1215.16-1569.14"/>
</svg>
